<?xml version="1.0" encoding="UTF-8" standalone="no"?><!DOCTYPE svg PUBLIC "-//W3C//DTD SVG 1.1//EN" "http://www.w3.org/Graphics/SVG/1.1/DTD/svg11.dtd"><svg width="100%" height="100%" viewBox="0 0 159 196" version="1.1" xmlns="http://www.w3.org/2000/svg" xmlns:xlink="http://www.w3.org/1999/xlink" xml:space="preserve" xmlns:serif="http://www.serif.com/" style="fill-rule:evenodd;clip-rule:evenodd;stroke-linejoin:round;stroke-miterlimit:2;"><g><path id="Path_81" d="M113.483,0.275c14.334,-0.061 28.668,-0.114 43.005,-0.158c0.387,-0 0.775,0.416 1.166,0.65c-3.36,5.505 -7.234,10.68 -11.571,15.454c-3.483,4.721 -7.458,9.058 -11.012,13.75c-1.103,1.176 -2.121,2.429 -3.046,3.75c-0.275,0.405 -0.583,0.787 -0.921,1.141c-2.305,2.534 -4.465,5.195 -6.471,7.971c-11.822,14.681 -23.664,29.342 -35.525,43.984c-14.33,17.619 -28.636,35.258 -42.916,52.916c-13.6,16.813 -27.292,33.554 -40.8,50.442c-1.168,1.689 -2.518,3.244 -4.025,4.637c-0.297,0.186 -0.669,0.206 -0.984,0.055c-0.415,-3.841 -0.503,-7.711 -0.262,-11.567c-0,-14.496 0.104,-28.988 0.167,-43.483c5.258,-7.846 11.612,-14.834 17.5,-22.167c17.955,-22.308 35.937,-44.596 53.945,-66.863c12.434,-15.416 25,-30.775 37.38,-46.25c1.113,-1.734 2.608,-3.192 4.37,-4.262Z" style="fill:#007cb5;fill-rule:nonzero;"/><path id="Path_82" d="M134.375,29.763c7.404,-9.946 15.317,-19.484 23.267,-28.992c0.091,5.904 0.275,11.808 0.262,17.716c-0.021,12.309 -0.146,24.617 -0.229,36.926c-1.875,3.647 -4.274,7.001 -7.121,9.954c-17.116,20.937 -33.946,42.108 -50.983,63.108c-17.108,21.092 -34.4,42.042 -51.283,63.333c-1.621,2.272 -4.298,3.56 -7.084,3.409c-12.187,-0.179 -24.375,-0.059 -36.566,-0.096c-1.15,-0 -2.405,0.462 -3.471,-0.417c4.114,-6.083 8.631,-11.883 13.521,-17.362c36.111,-44.739 72.275,-89.446 108.491,-134.121c0.328,-0.348 0.683,-0.668 1.063,-0.959c2.549,-2.383 4.751,-5.112 6.541,-8.108l0.496,-0.642c1.301,-1 2.36,-2.282 3.096,-3.749Z" style="fill:#6ac000;fill-rule:nonzero;"/><path id="Path_85" d="M1.158,194.696c13.655,0.041 27.309,0.025 40.963,0.167c2.829,0.029 4.083,-1.959 5.462,-3.655c16.667,-20.444 33.286,-40.927 49.859,-61.45c12.554,-15.558 24.958,-31.25 37.525,-46.791c7.5,-9.263 15.137,-18.379 22.716,-27.559c0.07,8.792 0.141,17.584 0.213,26.375c0.062,6.746 -0.096,13.509 0.296,20.238c0.597,4.584 -1.06,9.185 -4.442,12.337c-1.088,1.114 -2.11,2.291 -3.058,3.525c-1.251,1.015 -2.301,2.254 -3.096,3.655l0.037,-0.046c-1.9,0.916 -2.595,2.816 -3.612,4.454l0.05,-0.063c-0.95,0.81 -1.728,1.801 -2.288,2.917l0.034,-0.05c-3.607,3.525 -6.784,7.465 -9.463,11.738c-6.687,8.387 -13.333,16.795 -20.075,25.15c-7.35,9.12 -14.796,18.162 -22.129,27.291c-1.082,1.603 -2.912,2.547 -4.846,2.5c-27.404,-0.05 -54.808,0 -82.208,0c-0.917,0 -1.95,0.346 -2.713,-0.533l0.775,-0.2Z" style="fill:#bad400;fill-rule:nonzero;"/><path id="Path_86" d="M113.479,0.275c-4.766,6.046 -9.475,12.133 -14.312,18.125c-11.796,14.608 -23.667,29.167 -35.475,43.75c-11.959,14.781 -23.903,29.575 -35.834,44.383c-8.55,10.578 -17.112,21.145 -25.687,31.7c-0.432,0.726 -1.102,1.281 -1.896,1.571c-0.064,-17.269 -0.131,-34.54 -0.2,-51.812c0.016,-1.21 0.476,-2.373 1.292,-3.267c22.316,-27.592 44.619,-55.194 66.908,-82.808c0.676,-1.153 1.898,-1.88 3.233,-1.925c13.996,0.141 27.984,0.2 41.971,0.283Z" style="fill:#003874;fill-rule:nonzero;"/></g></svg>